<svg xmlns="http://www.w3.org/2000/svg" width="1920" height="1080" viewBox="0 0 1920 1080" fill="none">

  <defs>
    <linearGradient id="slimeGrad" x1="0" y1="0" x2="1" y2="1">
      <stop offset="0" stop-color="#F0FF48"/>
      <stop offset="0.38" stop-color="#B6FF00"/>
      <stop offset="0.72" stop-color="#50E500"/>
      <stop offset="1" stop-color="#137600"/>
    </linearGradient>
    <linearGradient id="darkGrad" x1="0" y1="0" x2="1" y2="1">
      <stop offset="0" stop-color="#0F1C0E"/>
      <stop offset="1" stop-color="#020402"/>
    </linearGradient>
    <radialGradient id="glowGrad" cx="50%" cy="50%" r="60%">
      <stop offset="0" stop-color="#B6FF00" stop-opacity="0.55"/>
      <stop offset="0.52" stop-color="#5EFF00" stop-opacity="0.16"/>
      <stop offset="1" stop-color="#5EFF00" stop-opacity="0"/>
    </radialGradient>
    <filter id="softGlow" x="-60%" y="-60%" width="220%" height="220%">
      <feGaussianBlur stdDeviation="3.5" result="blur"/>
      <feColorMatrix in="blur" type="matrix" values="0 0 0 0 0.7 0 0 0 0 1 0 0 0 0 0 0 0 0 0.9 0" result="greenBlur"/>
      <feMerge><feMergeNode in="greenBlur"/><feMergeNode in="SourceGraphic"/></feMerge>
    </filter>
    <filter id="heavyGlow" x="-80%" y="-80%" width="260%" height="260%">
      <feGaussianBlur stdDeviation="8" result="blur"/>
      <feColorMatrix in="blur" type="matrix" values="0 0 0 0 0.7 0 0 0 0 1 0 0 0 0 0 0 0 0 0.9 0" result="greenBlur"/>
      <feMerge><feMergeNode in="greenBlur"/><feMergeNode in="SourceGraphic"/></feMerge>
    </filter>
    <filter id="innerShadow" x="-30%" y="-30%" width="160%" height="160%">
      <feOffset dx="0" dy="1"/>
      <feGaussianBlur stdDeviation="1.5" result="offset-blur"/>
      <feComposite operator="out" in="SourceGraphic" in2="offset-blur" result="inverse"/>
      <feFlood flood-color="#E6FF40" flood-opacity="0.55" result="color"/>
      <feComposite operator="in" in="color" in2="inverse" result="shadow"/>
      <feComposite operator="over" in="shadow" in2="SourceGraphic"/>
    </filter>
  </defs>

  <rect width="1920" height="1080" fill="#020402"/>
  <rect width="1920" height="1080" fill="url(#glowGrad)" opacity="0.28"/>
  <g opacity="0.24" stroke="#B6FF00" stroke-width="1">
    <path d="M0 0V1080"/><path d="M80 0V1080"/><path d="M160 0V1080"/><path d="M240 0V1080"/><path d="M320 0V1080"/><path d="M400 0V1080"/><path d="M480 0V1080"/><path d="M560 0V1080"/><path d="M640 0V1080"/><path d="M720 0V1080"/><path d="M800 0V1080"/><path d="M880 0V1080"/><path d="M960 0V1080"/><path d="M1040 0V1080"/><path d="M1120 0V1080"/><path d="M1200 0V1080"/><path d="M1280 0V1080"/><path d="M1360 0V1080"/><path d="M1440 0V1080"/><path d="M1520 0V1080"/><path d="M1600 0V1080"/><path d="M1680 0V1080"/><path d="M1760 0V1080"/><path d="M1840 0V1080"/><path d="M1920 0V1080"/>
    <path d="M0 0H1920"/><path d="M0 80H1920"/><path d="M0 160H1920"/><path d="M0 240H1920"/><path d="M0 320H1920"/><path d="M0 400H1920"/><path d="M0 480H1920"/><path d="M0 560H1920"/><path d="M0 640H1920"/><path d="M0 720H1920"/><path d="M0 800H1920"/><path d="M0 880H1920"/><path d="M0 960H1920"/><path d="M0 1040H1920"/>
  </g>
  <g opacity="0.36" stroke="#B6FF00" stroke-width="1">
    <path d="M0 0V1080"/><path d="M320 0V1080"/><path d="M640 0V1080"/><path d="M960 0V1080"/><path d="M1280 0V1080"/><path d="M1600 0V1080"/><path d="M1920 0V1080"/>
    <path d="M0 0H1920"/><path d="M0 320H1920"/><path d="M0 640H1920"/><path d="M0 960H1920"/>
  </g>
  <path d="M0 0H1920V1080H0V0Z" fill="url(#glowGrad)" opacity="0.12"/>
  <circle cx="1600" cy="170" r="420" fill="#B6FF00" opacity="0.06"/>
  <circle cx="220" cy="900" r="360" fill="#66FF00" opacity="0.06"/>
  <g opacity="0.18">
    <path d="M0 120C140 100 280 145 460 115C620 88 780 105 920 119C1100 138 1200 82 1420 101C1620 119 1780 97 1920 120" stroke="#B6FF00" stroke-width="8" stroke-linecap="round"/>
    <path d="M0 980C150 961 302 996 460 975C700 943 830 995 1040 972C1222 953 1444 1005 1660 976C1780 960 1877 965 1920 975" stroke="#B6FF00" stroke-width="8" stroke-linecap="round"/>
  </g>
</svg>
