<svg xmlns="http://www.w3.org/2000/svg" width="512" height="512" viewBox="0 0 512 512" fill="none">

  <defs>
    <linearGradient id="slimeGrad" x1="0" y1="0" x2="1" y2="1">
      <stop offset="0" stop-color="#F0FF48"/>
      <stop offset="0.38" stop-color="#B6FF00"/>
      <stop offset="0.72" stop-color="#50E500"/>
      <stop offset="1" stop-color="#137600"/>
    </linearGradient>
    <linearGradient id="darkGrad" x1="0" y1="0" x2="1" y2="1">
      <stop offset="0" stop-color="#0F1C0E"/>
      <stop offset="1" stop-color="#020402"/>
    </linearGradient>
    <radialGradient id="glowGrad" cx="50%" cy="50%" r="60%">
      <stop offset="0" stop-color="#B6FF00" stop-opacity="0.55"/>
      <stop offset="0.52" stop-color="#5EFF00" stop-opacity="0.16"/>
      <stop offset="1" stop-color="#5EFF00" stop-opacity="0"/>
    </radialGradient>
    <filter id="softGlow" x="-60%" y="-60%" width="220%" height="220%">
      <feGaussianBlur stdDeviation="3.5" result="blur"/>
      <feColorMatrix in="blur" type="matrix" values="0 0 0 0 0.7 0 0 0 0 1 0 0 0 0 0 0 0 0 0.9 0" result="greenBlur"/>
      <feMerge><feMergeNode in="greenBlur"/><feMergeNode in="SourceGraphic"/></feMerge>
    </filter>
    <filter id="heavyGlow" x="-80%" y="-80%" width="260%" height="260%">
      <feGaussianBlur stdDeviation="8" result="blur"/>
      <feColorMatrix in="blur" type="matrix" values="0 0 0 0 0.7 0 0 0 0 1 0 0 0 0 0 0 0 0 0.9 0" result="greenBlur"/>
      <feMerge><feMergeNode in="greenBlur"/><feMergeNode in="SourceGraphic"/></feMerge>
    </filter>
    <filter id="innerShadow" x="-30%" y="-30%" width="160%" height="160%">
      <feOffset dx="0" dy="1"/>
      <feGaussianBlur stdDeviation="1.5" result="offset-blur"/>
      <feComposite operator="out" in="SourceGraphic" in2="offset-blur" result="inverse"/>
      <feFlood flood-color="#E6FF40" flood-opacity="0.55" result="color"/>
      <feComposite operator="in" in="color" in2="inverse" result="shadow"/>
      <feComposite operator="over" in="shadow" in2="SourceGraphic"/>
    </filter>
  </defs>

  <rect width="512" height="512" fill="transparent"/>
  <circle cx="256" cy="260" r="194" fill="url(#glowGrad)" opacity="0.7"/>
  <path d="M159 132C128 96 116 65 128 37C169 68 195 90 208 117C222 111 239 108 256 108C273 108 290 111 305 117C318 90 344 68 385 37C397 65 385 96 354 132C381 158 398 196 398 239C398 319 334 382 256 382C178 382 114 319 114 239C114 196 131 158 159 132Z" fill="url(#darkGrad)" stroke="url(#slimeGrad)" stroke-width="18" filter="url(#softGlow)" stroke-linejoin="round"/>
  <path d="M150 306C154 343 172 369 198 384C205 388 211 391 218 393C220 410 211 428 188 448C224 444 246 431 256 407C266 431 288 444 324 448C301 428 292 410 294 393C301 391 307 388 314 384C340 369 358 343 362 306C339 337 302 356 256 356C210 356 173 337 150 306Z" fill="url(#slimeGrad)" opacity="0.95" filter="url(#softGlow)"/>
  <circle cx="256" cy="178" r="26" fill="#CFFF23" stroke="#EFFF7A" stroke-width="8" filter="url(#softGlow)"/>
  <circle cx="172" cy="268" r="24" fill="#B6FF00" stroke="#EFFF7A" stroke-width="8" filter="url(#softGlow)"/>
  <circle cx="340" cy="268" r="24" fill="#B6FF00" stroke="#EFFF7A" stroke-width="8" filter="url(#softGlow)"/>
  <circle cx="256" cy="265" r="20" fill="#A8FF00" stroke="#EFFF7A" stroke-width="7" filter="url(#softGlow)"/>
  <path d="M256 204V241M237 251L194 265M275 251L318 265" stroke="#EFFF7A" stroke-width="17" stroke-linecap="round" stroke-linejoin="round" filter="url(#softGlow)"/>
  <path d="M213 313C236 292 274 292 297 313" stroke="#B6FF00" stroke-width="14" stroke-linecap="round" filter="url(#softGlow)" opacity="0.95"/>
  <path d="M227 344C245 331 267 331 285 344" stroke="#B6FF00" stroke-width="13" stroke-linecap="round" filter="url(#softGlow)" opacity="0.86"/>
  <circle cx="256" cy="371" r="10" fill="#B6FF00" filter="url(#softGlow)"/>
  <path d="M119 225C98 222 83 235 73 259C93 260 106 254 118 244" stroke="url(#slimeGrad)" stroke-width="12" stroke-linecap="round" opacity="0.85"/>
  <path d="M393 225C414 222 429 235 439 259C419 260 406 254 394 244" stroke="url(#slimeGrad)" stroke-width="12" stroke-linecap="round" opacity="0.85"/>
  <circle cx="184" cy="390" r="7" fill="#DBFF3B"/>
  <circle cx="330" cy="390" r="7" fill="#DBFF3B"/>
</svg>
