<svg xmlns="http://www.w3.org/2000/svg" width="900" height="520" viewBox="0 0 900 520" fill="none">

  <defs>
    <linearGradient id="slimeGrad" x1="0" y1="0" x2="1" y2="1">
      <stop offset="0" stop-color="#F0FF48"/>
      <stop offset="0.38" stop-color="#B6FF00"/>
      <stop offset="0.72" stop-color="#50E500"/>
      <stop offset="1" stop-color="#137600"/>
    </linearGradient>
    <linearGradient id="darkGrad" x1="0" y1="0" x2="1" y2="1">
      <stop offset="0" stop-color="#0F1C0E"/>
      <stop offset="1" stop-color="#020402"/>
    </linearGradient>
    <radialGradient id="glowGrad" cx="50%" cy="50%" r="60%">
      <stop offset="0" stop-color="#B6FF00" stop-opacity="0.55"/>
      <stop offset="0.52" stop-color="#5EFF00" stop-opacity="0.16"/>
      <stop offset="1" stop-color="#5EFF00" stop-opacity="0"/>
    </radialGradient>
    <filter id="softGlow" x="-60%" y="-60%" width="220%" height="220%">
      <feGaussianBlur stdDeviation="3.5" result="blur"/>
      <feColorMatrix in="blur" type="matrix" values="0 0 0 0 0.7 0 0 0 0 1 0 0 0 0 0 0 0 0 0.9 0" result="greenBlur"/>
      <feMerge><feMergeNode in="greenBlur"/><feMergeNode in="SourceGraphic"/></feMerge>
    </filter>
    <filter id="heavyGlow" x="-80%" y="-80%" width="260%" height="260%">
      <feGaussianBlur stdDeviation="8" result="blur"/>
      <feColorMatrix in="blur" type="matrix" values="0 0 0 0 0.7 0 0 0 0 1 0 0 0 0 0 0 0 0 0.9 0" result="greenBlur"/>
      <feMerge><feMergeNode in="greenBlur"/><feMergeNode in="SourceGraphic"/></feMerge>
    </filter>
    <filter id="innerShadow" x="-30%" y="-30%" width="160%" height="160%">
      <feOffset dx="0" dy="1"/>
      <feGaussianBlur stdDeviation="1.5" result="offset-blur"/>
      <feComposite operator="out" in="SourceGraphic" in2="offset-blur" result="inverse"/>
      <feFlood flood-color="#E6FF40" flood-opacity="0.55" result="color"/>
      <feComposite operator="in" in="color" in2="inverse" result="shadow"/>
      <feComposite operator="over" in="shadow" in2="SourceGraphic"/>
    </filter>
  </defs>

  <rect width="900" height="520" fill="transparent"/>
  <rect x="38" y="42" width="824" height="420" rx="30" fill="#061006" fill-opacity="0.74" stroke="#B6FF00" stroke-width="3"/>
  <path d="M68 44C180 36 256 50 358 43C485 34 600 47 736 40C814 36 854 47 861 74" stroke="url(#slimeGrad)" stroke-width="12" stroke-linecap="round" filter="url(#softGlow)"/>
  <path d="M64 463C179 471 257 458 361 466C494 476 603 458 737 466C811 470 850 459 861 432" stroke="url(#slimeGrad)" stroke-width="12" stroke-linecap="round" filter="url(#softGlow)"/>
  <g fill="url(#slimeGrad)" filter="url(#softGlow)">
    <path d="M190 41c16 1 23 11 20 26c-5 27-11 42-24 40c-14-2-7-29-6-44c1-10 3-16 10-22z"/>
    <path d="M515 42c14 1 20 10 18 23c-4 25-10 38-21 36c-13-2-6-26-5-40c1-9 2-15 8-19z"/>
    <path d="M744 43c18 1 26 14 22 30c-6 31-15 49-29 46c-15-4-6-35-3-52c1-11 4-17 10-24z"/>
    <path d="M612 466c15 0 23 10 21 23c-4 26-11 39-23 38c-12-2-7-27-6-41c1-9 3-14 8-20z"/>
    <path d="M290 464c18 0 28 12 24 29c-5 31-14 50-29 46c-15-4-6-36-3-53c1-10 3-16 8-22z"/>
  </g>
</svg>
