<svg xmlns="http://www.w3.org/2000/svg" width="1200" height="260" viewBox="0 0 1200 260" fill="none">

  <defs>
    <linearGradient id="slimeGrad" x1="0" y1="0" x2="1" y2="1">
      <stop offset="0" stop-color="#F0FF48"/>
      <stop offset="0.38" stop-color="#B6FF00"/>
      <stop offset="0.72" stop-color="#50E500"/>
      <stop offset="1" stop-color="#137600"/>
    </linearGradient>
    <linearGradient id="darkGrad" x1="0" y1="0" x2="1" y2="1">
      <stop offset="0" stop-color="#0F1C0E"/>
      <stop offset="1" stop-color="#020402"/>
    </linearGradient>
    <radialGradient id="glowGrad" cx="50%" cy="50%" r="60%">
      <stop offset="0" stop-color="#B6FF00" stop-opacity="0.55"/>
      <stop offset="0.52" stop-color="#5EFF00" stop-opacity="0.16"/>
      <stop offset="1" stop-color="#5EFF00" stop-opacity="0"/>
    </radialGradient>
    <filter id="softGlow" x="-60%" y="-60%" width="220%" height="220%">
      <feGaussianBlur stdDeviation="3.5" result="blur"/>
      <feColorMatrix in="blur" type="matrix" values="0 0 0 0 0.7 0 0 0 0 1 0 0 0 0 0 0 0 0 0.9 0" result="greenBlur"/>
      <feMerge><feMergeNode in="greenBlur"/><feMergeNode in="SourceGraphic"/></feMerge>
    </filter>
    <filter id="heavyGlow" x="-80%" y="-80%" width="260%" height="260%">
      <feGaussianBlur stdDeviation="8" result="blur"/>
      <feColorMatrix in="blur" type="matrix" values="0 0 0 0 0.7 0 0 0 0 1 0 0 0 0 0 0 0 0 0.9 0" result="greenBlur"/>
      <feMerge><feMergeNode in="greenBlur"/><feMergeNode in="SourceGraphic"/></feMerge>
    </filter>
    <filter id="innerShadow" x="-30%" y="-30%" width="160%" height="160%">
      <feOffset dx="0" dy="1"/>
      <feGaussianBlur stdDeviation="1.5" result="offset-blur"/>
      <feComposite operator="out" in="SourceGraphic" in2="offset-blur" result="inverse"/>
      <feFlood flood-color="#E6FF40" flood-opacity="0.55" result="color"/>
      <feComposite operator="in" in="color" in2="inverse" result="shadow"/>
      <feComposite operator="over" in="shadow" in2="SourceGraphic"/>
    </filter>
  </defs>

  <rect width="1200" height="260" fill="transparent"/>
  <text x="40" y="170" font-family="Arial Black, Impact, system-ui, sans-serif" font-size="136" letter-spacing="12" fill="url(#slimeGrad)" stroke="#DFFF54" stroke-width="2" filter="url(#softGlow)">SLIMEWIRE</text>
  <path d="M72 190C98 197 128 197 160 190C190 184 226 184 258 190C295 198 329 198 360 190C393 182 429 183 466 190C498 196 534 196 568 190C600 184 636 184 668 190C704 197 739 197 774 190C809 183 844 183 879 190C912 196 949 197 984 190C1018 183 1052 183 1088 190" stroke="#B6FF00" stroke-width="8" stroke-linecap="round" opacity="0.6" filter="url(#softGlow)"/>
  <circle cx="198" cy="206" r="8" fill="#B6FF00" filter="url(#softGlow)"/>
  <circle cx="608" cy="204" r="7" fill="#B6FF00" filter="url(#softGlow)"/>
  <circle cx="1036" cy="206" r="9" fill="#B6FF00" filter="url(#softGlow)"/>
</svg>
