<svg xmlns="http://www.w3.org/2000/svg" viewBox="0 0 96 96" fill="none">
  <defs>
    <filter id="glow" x="-45%" y="-45%" width="190%" height="190%" color-interpolation-filters="sRGB">
      <feGaussianBlur stdDeviation="4" result="blur"/>
      <feColorMatrix in="blur" type="matrix" values="0 0 0 0 0.35 0 0 0 0 1 0 0 0 0 0.02 0 0 0 0.95 0"/>
      <feMerge>
        <feMergeNode/>
        <feMergeNode in="SourceGraphic"/>
      </feMerge>
    </filter>
    <linearGradient id="slime" x1="17" x2="81" y1="13" y2="83" gradientUnits="userSpaceOnUse">
      <stop stop-color="#E8FF6B"/>
      <stop offset="0.42" stop-color="#7DFF18"/>
      <stop offset="1" stop-color="#13A91F"/>
    </linearGradient>
  </defs>
  <g filter="url(#glow)">
    <path d="M24 30h33.5c7 0 12.5 5.5 12.5 12.5V46" stroke="url(#slime)" stroke-width="9" stroke-linecap="round"/>
    <path d="M58 18l14 14-14 14" stroke="url(#slime)" stroke-width="9" stroke-linecap="round" stroke-linejoin="round"/>
    <path d="M72 66H38.5C31.5 66 26 60.5 26 53.5V50" stroke="url(#slime)" stroke-width="9" stroke-linecap="round"/>
    <path d="M38 78 24 64l14-14" stroke="url(#slime)" stroke-width="9" stroke-linecap="round" stroke-linejoin="round"/>
    <path d="M35 70c0 6-4 9-8 12" stroke="#7DFF18" stroke-width="5" stroke-linecap="round"/>
    <path d="M68 40c0 5 3 8 6 11" stroke="#7DFF18" stroke-width="4" stroke-linecap="round"/>
  </g>
  <circle cx="31" cy="28" r="3" fill="#E9FF87" opacity="0.8"/>
  <circle cx="64" cy="69" r="2.5" fill="#D8FF75" opacity="0.75"/>
</svg>
