<svg xmlns="http://www.w3.org/2000/svg" width="1600" height="1200" viewBox="0 0 1600 1200" fill="none">

  <defs>
    <linearGradient id="slimeGrad" x1="0" y1="0" x2="1" y2="1">
      <stop offset="0" stop-color="#F0FF48"/>
      <stop offset="0.38" stop-color="#B6FF00"/>
      <stop offset="0.72" stop-color="#50E500"/>
      <stop offset="1" stop-color="#137600"/>
    </linearGradient>
    <linearGradient id="darkGrad" x1="0" y1="0" x2="1" y2="1">
      <stop offset="0" stop-color="#0F1C0E"/>
      <stop offset="1" stop-color="#020402"/>
    </linearGradient>
    <radialGradient id="glowGrad" cx="50%" cy="50%" r="60%">
      <stop offset="0" stop-color="#B6FF00" stop-opacity="0.55"/>
      <stop offset="0.52" stop-color="#5EFF00" stop-opacity="0.16"/>
      <stop offset="1" stop-color="#5EFF00" stop-opacity="0"/>
    </radialGradient>
    <filter id="softGlow" x="-60%" y="-60%" width="220%" height="220%">
      <feGaussianBlur stdDeviation="3.5" result="blur"/>
      <feColorMatrix in="blur" type="matrix" values="0 0 0 0 0.7 0 0 0 0 1 0 0 0 0 0 0 0 0 0.9 0" result="greenBlur"/>
      <feMerge><feMergeNode in="greenBlur"/><feMergeNode in="SourceGraphic"/></feMerge>
    </filter>
    <filter id="heavyGlow" x="-80%" y="-80%" width="260%" height="260%">
      <feGaussianBlur stdDeviation="8" result="blur"/>
      <feColorMatrix in="blur" type="matrix" values="0 0 0 0 0.7 0 0 0 0 1 0 0 0 0 0 0 0 0 0.9 0" result="greenBlur"/>
      <feMerge><feMergeNode in="greenBlur"/><feMergeNode in="SourceGraphic"/></feMerge>
    </filter>
    <filter id="innerShadow" x="-30%" y="-30%" width="160%" height="160%">
      <feOffset dx="0" dy="1"/>
      <feGaussianBlur stdDeviation="1.5" result="offset-blur"/>
      <feComposite operator="out" in="SourceGraphic" in2="offset-blur" result="inverse"/>
      <feFlood flood-color="#E6FF40" flood-opacity="0.55" result="color"/>
      <feComposite operator="in" in="color" in2="inverse" result="shadow"/>
      <feComposite operator="over" in="shadow" in2="SourceGraphic"/>
    </filter>
  </defs>

  <rect width="1600" height="1200" fill="#020402"/>
  <rect width="1600" height="1200" fill="url(#glowGrad)" opacity="0.18"/>
  <g transform="translate(620,90) scale(0.55)">
    <circle cx="256" cy="260" r="194" fill="url(#glowGrad)" opacity="0.65"/>
    <path d="M159 132C128 96 116 65 128 37C169 68 195 90 208 117C222 111 239 108 256 108C273 108 290 111 305 117C318 90 344 68 385 37C397 65 385 96 354 132C381 158 398 196 398 239C398 319 334 382 256 382C178 382 114 319 114 239C114 196 131 158 159 132Z" fill="#071007" stroke="url(#slimeGrad)" stroke-width="18" filter="url(#softGlow)" stroke-linejoin="round"/>
    <circle cx="256" cy="178" r="26" fill="#CFFF23"/><circle cx="172" cy="268" r="24" fill="#B6FF00"/><circle cx="340" cy="268" r="24" fill="#B6FF00"/><path d="M213 313C236 292 274 292 297 313" stroke="#B6FF00" stroke-width="14" stroke-linecap="round"/>
  </g>
  <g transform="translate(410,430)">
    <rect x="0" y="0" width="780" height="420" rx="42" fill="#061006" fill-opacity="0.84" stroke="#B6FF00" stroke-width="2" filter="url(#softGlow)"/>
    <text x="390" y="92" text-anchor="middle" font-family="Arial Black, Impact, system-ui" font-size="66" fill="url(#slimeGrad)" filter="url(#softGlow)">ENTER THE SWAMP</text>
    <text x="390" y="140" text-anchor="middle" font-family="Inter, system-ui" font-size="24" fill="#E8FBE2" opacity="0.78">Connect, create, or log in to open the trading terminal.</text>
    <g font-family="Inter, system-ui" font-size="26" fill="#E8FBE2">
      <rect x="70" y="190" width="300" height="72" rx="20" fill="#0D1B0D" stroke="#B6FF00"/>
      <text x="220" y="236" text-anchor="middle">Connect Wallet</text>
      <rect x="410" y="190" width="300" height="72" rx="20" fill="#0D1B0D" stroke="#314821"/>
      <text x="560" y="236" text-anchor="middle">Create Wallet</text>
      <rect x="70" y="286" width="300" height="72" rx="20" fill="#0D1B0D" stroke="#314821"/>
      <text x="220" y="332" text-anchor="middle">Log In</text>
      <rect x="410" y="286" width="300" height="72" rx="20" fill="#0D1B0D" stroke="#314821"/>
      <text x="560" y="332" text-anchor="middle">Create Account</text>
    </g>
  </g>
  <g transform="translate(560,920)" font-family="Inter, system-ui" font-size="24">
    <circle cx="0" cy="0" r="18" fill="#B6FF00"/><text x="0" y="8" text-anchor="middle" fill="#061006">1</text><text x="34" y="8" fill="#9BB894">Intro</text>
    <circle cx="180" cy="0" r="18" fill="#B6FF00"/><text x="180" y="8" text-anchor="middle" fill="#061006">2</text><text x="214" y="8" fill="#E8FBE2">Connect</text>
    <circle cx="410" cy="0" r="18" fill="#1E2B16" stroke="#B6FF00"/><text x="410" y="8" text-anchor="middle" fill="#B6FF00">3</text><text x="444" y="8" fill="#9BB894">Terminal</text>
  </g>
</svg>
