<svg xmlns="http://www.w3.org/2000/svg" width="1920" height="1080" viewBox="0 0 1920 1080" fill="none">

  <defs>
    <linearGradient id="slimeGrad" x1="0" y1="0" x2="1" y2="1">
      <stop offset="0" stop-color="#F0FF48"/>
      <stop offset="0.38" stop-color="#B6FF00"/>
      <stop offset="0.72" stop-color="#50E500"/>
      <stop offset="1" stop-color="#137600"/>
    </linearGradient>
    <linearGradient id="darkGrad" x1="0" y1="0" x2="1" y2="1">
      <stop offset="0" stop-color="#0F1C0E"/>
      <stop offset="1" stop-color="#020402"/>
    </linearGradient>
    <radialGradient id="glowGrad" cx="50%" cy="50%" r="60%">
      <stop offset="0" stop-color="#B6FF00" stop-opacity="0.55"/>
      <stop offset="0.52" stop-color="#5EFF00" stop-opacity="0.16"/>
      <stop offset="1" stop-color="#5EFF00" stop-opacity="0"/>
    </radialGradient>
    <filter id="softGlow" x="-60%" y="-60%" width="220%" height="220%">
      <feGaussianBlur stdDeviation="3.5" result="blur"/>
      <feColorMatrix in="blur" type="matrix" values="0 0 0 0 0.7 0 0 0 0 1 0 0 0 0 0 0 0 0 0.9 0" result="greenBlur"/>
      <feMerge><feMergeNode in="greenBlur"/><feMergeNode in="SourceGraphic"/></feMerge>
    </filter>
    <filter id="heavyGlow" x="-80%" y="-80%" width="260%" height="260%">
      <feGaussianBlur stdDeviation="8" result="blur"/>
      <feColorMatrix in="blur" type="matrix" values="0 0 0 0 0.7 0 0 0 0 1 0 0 0 0 0 0 0 0 0.9 0" result="greenBlur"/>
      <feMerge><feMergeNode in="greenBlur"/><feMergeNode in="SourceGraphic"/></feMerge>
    </filter>
    <filter id="innerShadow" x="-30%" y="-30%" width="160%" height="160%">
      <feOffset dx="0" dy="1"/>
      <feGaussianBlur stdDeviation="1.5" result="offset-blur"/>
      <feComposite operator="out" in="SourceGraphic" in2="offset-blur" result="inverse"/>
      <feFlood flood-color="#E6FF40" flood-opacity="0.55" result="color"/>
      <feComposite operator="in" in="color" in2="inverse" result="shadow"/>
      <feComposite operator="over" in="shadow" in2="SourceGraphic"/>
    </filter>
  </defs>

  <rect width="1920" height="1080" fill="#020402"/>
  <rect width="1920" height="1080" fill="url(#glowGrad)" opacity="0.12"/>
  <g opacity="0.12" stroke="#B6FF00" stroke-width="1">
    <path d="M0 0V1080"/><path d="M96 0V1080"/><path d="M192 0V1080"/><path d="M288 0V1080"/><path d="M384 0V1080"/><path d="M480 0V1080"/><path d="M576 0V1080"/><path d="M672 0V1080"/><path d="M768 0V1080"/><path d="M864 0V1080"/><path d="M960 0V1080"/><path d="M1056 0V1080"/><path d="M1152 0V1080"/><path d="M1248 0V1080"/><path d="M1344 0V1080"/><path d="M1440 0V1080"/><path d="M1536 0V1080"/><path d="M1632 0V1080"/><path d="M1728 0V1080"/><path d="M1824 0V1080"/><path d="M1920 0V1080"/>
    <path d="M0 0H1920"/><path d="M0 96H1920"/><path d="M0 192H1920"/><path d="M0 288H1920"/><path d="M0 384H1920"/><path d="M0 480H1920"/><path d="M0 576H1920"/><path d="M0 672H1920"/><path d="M0 768H1920"/><path d="M0 864H1920"/><path d="M0 960H1920"/><path d="M0 1056H1920"/>
  </g>
  <rect x="20" y="20" width="1880" height="72" rx="18" fill="#061006" stroke="#1C3516"/>
  <text x="84" y="66" font-family="Arial Black, Impact" font-size="34" fill="url(#slimeGrad)" filter="url(#softGlow)">SLIMEWIRE</text>
  <rect x="300" y="34" width="560" height="44" rx="14" fill="#0B160B" stroke="#28451D"/>
  <text x="326" y="62" font-family="Inter, system-ui" font-size="20" fill="#9BB894">Search token, pair, wallet, or KOL...</text>
  <rect x="920" y="34" width="190" height="44" rx="14" fill="#0B160B" stroke="#B6FF00" opacity="0.9"/>
  <text x="940" y="62" font-family="Inter, system-ui" font-size="19" fill="#E8FBE2">Preset: 0.10 SOL</text>
  <rect x="1140" y="34" width="140" height="44" rx="14" fill="#0B160B" stroke="#28451D"/>
  <text x="1168" y="62" font-family="Inter" font-size="18" fill="#B6FF00">Live • 3s</text>
  <rect x="1300" y="34" width="160" height="44" rx="14" fill="#0B160B" stroke="#28451D"/>
  <text x="1322" y="62" font-family="Inter" font-size="18" fill="#E8FBE2">SOL 2.184</text>
  <rect x="1478" y="34" width="190" height="44" rx="14" fill="#0B160B" stroke="#B6FF00"/>
  <text x="1516" y="62" font-family="Inter" font-size="18" fill="#E8FBE2">⟳ Refresh Wallet</text>
  <rect x="1688" y="34" width="184" height="44" rx="14" fill="#0B160B" stroke="#28451D"/>
  <text x="1722" y="62" font-family="Inter" font-size="18" fill="#E8FBE2">Health: Synced</text>

  <rect x="20" y="112" width="220" height="936" rx="20" fill="#061006" stroke="#1C3516"/>
  <g font-family="Inter, system-ui" font-size="18" fill="#CFEBC8">
    <text x="46" y="156" fill="#B6FF00">Live Terminal</text>
    <text x="46" y="208">Trade</text><text x="46" y="252">Live Pairs</text><text x="46" y="296">Live Trades</text><text x="46" y="340">Watchlist</text><text x="46" y="384">Launch</text><text x="46" y="428">Snipe</text><text x="46" y="472">Bundle</text><text x="46" y="516">Volume</text><text x="46" y="560">KOL Tracker</text><text x="46" y="604">Wallets</text><text x="46" y="648">Positions</text><text x="46" y="692">PnL</text><text x="46" y="736">Tx Audit</text><text x="46" y="780">Profile</text>
  </g>

  <rect x="260" y="112" width="1010" height="520" rx="20" fill="#061006" stroke="#1C3516"/>
  <text x="292" y="154" font-family="Arial Black, Impact" font-size="30" fill="#E8FBE2">Best Picks + Live Pairs</text>
  <g font-family="Inter" font-size="16">
    <rect x="292" y="174" width="90" height="32" rx="10" fill="#B6FF00"/><text x="318" y="196" fill="#061006">Last 1h</text>
    <rect x="392" y="174" width="90" height="32" rx="10" fill="#0B160B" stroke="#28451D"/><text x="420" y="196" fill="#CFEBC8">3h</text>
    <rect x="492" y="174" width="90" height="32" rx="10" fill="#0B160B" stroke="#28451D"/><text x="520" y="196" fill="#CFEBC8">24h</text>
    <rect x="606" y="174" width="130" height="32" rx="10" fill="#0B160B" stroke="#B6FF00"/><text x="628" y="196" fill="#B6FF00">Best Picks</text>
    <rect x="750" y="174" width="110" height="32" rx="10" fill="#0B160B" stroke="#28451D"/><text x="780" y="196" fill="#CFEBC8">Newest</text>
  </g>
  <g transform="translate(292,230)" font-family="Inter, system-ui" font-size="17">
    <rect width="938" height="60" rx="14" fill="#0B160B" stroke="#2C4A20"/><text x="20" y="38" fill="#E8FBE2">$SWAMPDOG</text><text x="185" y="38" fill="#B6FF00">42m</text><text x="270" y="38" fill="#E8FBE2">Liq 84k</text><text x="390" y="38" fill="#E8FBE2">Vol 312k</text><text x="530" y="38" fill="#B6FF00">KOL 6</text><text x="650" y="38" fill="#FFD166">Risk Med</text><rect x="790" y="13" width="118" height="34" rx="10" fill="#B6FF00"/><text x="806" y="36" fill="#061006">Buy 0.1</text>
    <g transform="translate(0,76)"><rect width="938" height="60" rx="14" fill="#0B160B" stroke="#2C4A20"/><text x="20" y="38" fill="#E8FBE2">$OGREX</text><text x="185" y="38" fill="#B6FF00">18m</text><text x="270" y="38" fill="#E8FBE2">Liq 44k</text><text x="390" y="38" fill="#E8FBE2">Vol 198k</text><text x="530" y="38" fill="#B6FF00">KOL 3</text><text x="650" y="38" fill="#8CFF65">Risk Low</text><rect x="790" y="13" width="118" height="34" rx="10" fill="#B6FF00"/><text x="806" y="36" fill="#061006">Buy 0.1</text></g>
    <g transform="translate(0,152)"><rect width="938" height="60" rx="14" fill="#0B160B" stroke="#2C4A20"/><text x="20" y="38" fill="#E8FBE2">$SLUDGE</text><text x="185" y="38" fill="#B6FF00">55m</text><text x="270" y="38" fill="#E8FBE2">Liq 21k</text><text x="390" y="38" fill="#E8FBE2">Vol 92k</text><text x="530" y="38" fill="#B6FF00">KOL 1</text><text x="650" y="38" fill="#FF4D4D">Risk High</text><rect x="790" y="13" width="118" height="34" rx="10" fill="#1C2E17" stroke="#B6FF00"/><text x="806" y="36" fill="#B6FF00">Preview</text></g>
  </g>

  <rect x="260" y="652" width="1010" height="396" rx="20" fill="#061006" stroke="#1C3516"/>
  <text x="292" y="694" font-family="Arial Black, Impact" font-size="28" fill="#E8FBE2">Positions / Orders / Wallets / PnL</text>
  <g font-family="Inter" font-size="16" fill="#CFEBC8">
    <rect x="292" y="724" width="938" height="44" rx="12" fill="#0B160B" stroke="#253B1C"/><text x="312" y="752">$OGREX</text><text x="520" y="752">+18.2%</text><text x="700" y="752">Unrealized 0.042 SOL</text><rect x="1030" y="730" width="88" height="32" rx="10" fill="#1C2E17" stroke="#B6FF00"/><text x="1054" y="752">Exit</text><rect x="1130" y="730" width="88" height="32" rx="10" fill="#1C2E17" stroke="#B6FF00"/><text x="1150" y="752">Sell 50</text>
    <rect x="292" y="784" width="938" height="44" rx="12" fill="#0B160B" stroke="#253B1C"/><text x="312" y="812">$SWAMPDOG</text><text x="520" y="812" fill="#FF4D4D">-12.4%</text><text x="700" y="812">Stop-loss: Watching</text><rect x="1030" y="790" width="88" height="32" rx="10" fill="#1C2E17" stroke="#B6FF00"/><text x="1054" y="812">Exit</text><rect x="1130" y="790" width="88" height="32" rx="10" fill="#1C2E17" stroke="#B6FF00"/><text x="1150" y="812">Audit</text>
  </g>

  <rect x="1290" y="112" width="610" height="508" rx="20" fill="#061006" stroke="#1C3516"/>
  <text x="1322" y="154" font-family="Arial Black, Impact" font-size="28" fill="#E8FBE2">Token Preview</text>
  <rect x="1322" y="180" width="548" height="250" rx="18" fill="#071107" stroke="#28451D"/>
  <path d="M1342 380C1380 310 1432 334 1475 278C1517 222 1581 281 1636 226C1689 173 1742 222 1850 190" stroke="#B6FF00" stroke-width="4" fill="none"/>
  <text x="1322" y="470" font-family="Inter" font-size="21" fill="#E8FBE2">KOL: 6 • Liq: 84k • Vol: 312k • Age: 42m</text>
  <text x="1322" y="510" font-family="Inter" font-size="19" fill="#FFD166">Why? High momentum, fresh, strong KOL activity. Risk: medium.</text>
  <rect x="1322" y="545" width="160" height="44" rx="14" fill="#B6FF00"/><text x="1350" y="574" font-family="Inter" font-size="19" fill="#061006">Quick Buy</text>
  <rect x="1500" y="545" width="160" height="44" rx="14" fill="#101C10" stroke="#B6FF00"/><text x="1528" y="574" font-family="Inter" font-size="19" fill="#B6FF00">Watchlist</text>
  <rect x="1680" y="545" width="150" height="44" rx="14" fill="#101C10" stroke="#B6FF00"/><text x="1710" y="574" font-family="Inter" font-size="19" fill="#B6FF00">Snipe</text>

  <rect x="1290" y="640" width="610" height="408" rx="20" fill="#061006" stroke="#1C3516"/>
  <text x="1322" y="684" font-family="Arial Black, Impact" font-size="28" fill="#E8FBE2">Trade Panel</text>
  <rect x="1322" y="710" width="260" height="44" rx="14" fill="#B6FF00"/><text x="1438" y="739" text-anchor="middle" font-family="Inter" font-size="18" fill="#061006">Buy</text>
  <rect x="1598" y="710" width="260" height="44" rx="14" fill="#101C10" stroke="#28451D"/><text x="1728" y="739" text-anchor="middle" font-family="Inter" font-size="18" fill="#E8FBE2">Sell</text>
  <rect x="1322" y="780" width="548" height="54" rx="16" fill="#0B160B" stroke="#28451D"/><text x="1348" y="814" font-family="Inter" font-size="19" fill="#9BB894">Amount: 0.10 SOL</text>
  <rect x="1322" y="850" width="548" height="54" rx="16" fill="#0B160B" stroke="#28451D"/><text x="1348" y="884" font-family="Inter" font-size="19" fill="#9BB894">Slippage 15% • Priority Fast • TP/SL Active</text>
  <rect x="1322" y="924" width="260" height="56" rx="16" fill="#101C10" stroke="#B6FF00"/><text x="1376" y="959" font-family="Inter" font-size="20" fill="#B6FF00">Edit Preset</text>
  <rect x="1598" y="924" width="260" height="56" rx="16" fill="#B6FF00"/><text x="1670" y="959" font-family="Inter" font-size="20" fill="#061006">Buy Preset</text>
</svg>
