<svg xmlns="http://www.w3.org/2000/svg" width="1920" height="1080" viewBox="0 0 1920 1080" fill="none">

  <defs>
    <linearGradient id="slimeGrad" x1="0" y1="0" x2="1" y2="1">
      <stop offset="0" stop-color="#F0FF48"/>
      <stop offset="0.38" stop-color="#B6FF00"/>
      <stop offset="0.72" stop-color="#50E500"/>
      <stop offset="1" stop-color="#137600"/>
    </linearGradient>
    <linearGradient id="darkGrad" x1="0" y1="0" x2="1" y2="1">
      <stop offset="0" stop-color="#0F1C0E"/>
      <stop offset="1" stop-color="#020402"/>
    </linearGradient>
    <radialGradient id="glowGrad" cx="50%" cy="50%" r="60%">
      <stop offset="0" stop-color="#B6FF00" stop-opacity="0.55"/>
      <stop offset="0.52" stop-color="#5EFF00" stop-opacity="0.16"/>
      <stop offset="1" stop-color="#5EFF00" stop-opacity="0"/>
    </radialGradient>
    <filter id="softGlow" x="-60%" y="-60%" width="220%" height="220%">
      <feGaussianBlur stdDeviation="3.5" result="blur"/>
      <feColorMatrix in="blur" type="matrix" values="0 0 0 0 0.7 0 0 0 0 1 0 0 0 0 0 0 0 0 0.9 0" result="greenBlur"/>
      <feMerge><feMergeNode in="greenBlur"/><feMergeNode in="SourceGraphic"/></feMerge>
    </filter>
  </defs>

  <rect width="1920" height="1080" fill="#020402"/>
  <rect width="1920" height="1080" fill="url(#glowGrad)" opacity="0.18"/>
  <path d="M84 86C270 60 397 82 558 74C680 68 805 54 940 74C1112 99 1240 67 1438 75C1590 82 1790 66 1840 111C1874 142 1836 216 1848 284C1868 402 1840 536 1851 698C1856 775 1870 902 1834 954C1792 1017 1605 970 1471 990C1283 1017 1157 950 965 986C771 1022 653 957 492 982C313 1009 160 997 101 947C54 907 80 810 68 702C54 570 72 478 61 349C50 210 39 122 84 86Z" fill="none" stroke="url(#slimeGrad)" stroke-width="34" stroke-linecap="round" stroke-linejoin="round" filter="url(#softGlow)"/>
  <g opacity="0.9" fill="url(#slimeGrad)" filter="url(#softGlow)">
    <path d="M275 82c25 1 37 17 34 41c-5 53-18 84-40 80c-23-5-10-57-7-86c1-18 5-29 13-35z"/>
    <path d="M520 88c20 1 30 14 27 32c-4 40-14 62-31 59c-18-3-8-42-6-64c1-12 3-21 10-27z"/>
    <path d="M906 78c27 1 39 20 34 46c-7 57-21 91-44 86c-24-5-10-61-7-92c1-18 5-30 17-40z"/>
    <path d="M1280 84c20 1 31 15 28 34c-5 40-14 62-31 59c-18-3-8-42-6-64c1-13 4-21 9-29z"/>
    <path d="M1634 90c25 1 38 18 34 41c-6 50-18 77-39 73c-22-4-10-53-7-82c1-16 5-26 12-32z"/>
    <path d="M68 908c-15 26-7 50 19 65c58 33 94 37 107 16c15-23-39-44-72-64c-20-12-31-17-54-17z"/>
    <path d="M1840 352c25 11 35 30 25 51c-27 54-66 76-103 70c-31-5-16-43 31-70c18-10 30-19 47-51z"/>
  </g>
  <g transform="translate(130,112)">
    <g transform="scale(0.35)">
      <circle cx="256" cy="260" r="194" fill="url(#glowGrad)" opacity="0.65"/>
      <path d="M159 132C128 96 116 65 128 37C169 68 195 90 208 117C222 111 239 108 256 108C273 108 290 111 305 117C318 90 344 68 385 37C397 65 385 96 354 132C381 158 398 196 398 239C398 319 334 382 256 382C178 382 114 319 114 239C114 196 131 158 159 132Z" fill="#071007" stroke="url(#slimeGrad)" stroke-width="18" filter="url(#softGlow)" stroke-linejoin="round"/>
      <circle cx="256" cy="178" r="26" fill="#CFFF23" stroke="#EFFF7A" stroke-width="8"/>
      <circle cx="172" cy="268" r="24" fill="#B6FF00" stroke="#EFFF7A" stroke-width="8"/>
      <circle cx="340" cy="268" r="24" fill="#B6FF00" stroke="#EFFF7A" stroke-width="8"/>
      <circle cx="256" cy="265" r="20" fill="#A8FF00" stroke="#EFFF7A" stroke-width="7"/>
      <path d="M256 204V241M237 251L194 265M275 251L318 265" stroke="#EFFF7A" stroke-width="17" stroke-linecap="round" stroke-linejoin="round"/>
      <path d="M213 313C236 292 274 292 297 313" stroke="#B6FF00" stroke-width="14" stroke-linecap="round"/>
      <path d="M227 344C245 331 267 331 285 344" stroke="#B6FF00" stroke-width="13" stroke-linecap="round" opacity="0.8"/>
      <circle cx="256" cy="371" r="10" fill="#B6FF00"/>
    </g>
    <text x="0" y="240" font-family="Inter, system-ui, sans-serif" font-size="42" letter-spacing="9" fill="#C9FF5F">BUILT FOR</text>
    <text x="0" y="380" font-family="Arial Black, Impact, system-ui, sans-serif" font-size="132" letter-spacing="8" fill="url(#slimeGrad)" filter="url(#softGlow)">TRADERS</text>
    <text x="4" y="448" font-family="Inter, system-ui, sans-serif" font-size="30" fill="#E8FBE2" opacity="0.92">Fast execution, bundles, volume, snipes, KOL signals,</text>
    <text x="4" y="488" font-family="Inter, system-ui, sans-serif" font-size="30" fill="#E8FBE2" opacity="0.92">wallets, and accurate PnL in one live command center.</text>
    <g transform="translate(0,565)">
      <rect x="0" y="0" width="330" height="76" rx="22" fill="#081208" stroke="url(#slimeGrad)" stroke-width="3" filter="url(#softGlow)"/>
      <text x="165" y="50" text-anchor="middle" font-family="Arial Black, Impact, system-ui" font-size="28" fill="#C9FF1A">ENTER THE SWAMP</text>
      <rect x="360" y="0" width="265" height="76" rx="22" fill="#050805" stroke="#3D6632" stroke-width="2"/>
      <text x="492" y="50" text-anchor="middle" font-family="Inter, system-ui" font-size="28" fill="#E8FBE2">Connect Wallet</text>
    </g>
  </g>
  <g transform="translate(1080,250)">
    <rect width="560" height="480" rx="36" fill="#061006" fill-opacity="0.82" stroke="#334B24"/>
    <text x="42" y="78" font-family="Arial Black, Impact" font-size="52" fill="url(#slimeGrad)" filter="url(#softGlow)">Live Command Center</text>
    <g font-family="Inter, system-ui" font-size="24" fill="#E8FBE2">
      <rect x="42" y="120" width="476" height="72" rx="18" fill="#0C190C" stroke="#29451E"/>
      <text x="74" y="165">Trade Terminal</text><text x="385" y="165" fill="#B6FF00">Ready</text>
      <rect x="42" y="214" width="476" height="72" rx="18" fill="#0C190C" stroke="#29451E"/>
      <text x="74" y="259">Live Pairs + KOL</text><text x="390" y="259" fill="#B6FF00">Live</text>
      <rect x="42" y="308" width="476" height="72" rx="18" fill="#0C190C" stroke="#29451E"/>
      <text x="74" y="353">Bundle + Volume</text><text x="380" y="353" fill="#B6FF00">Fast</text>
      <rect x="42" y="402" width="476" height="42" rx="14" fill="#081208" stroke="#B6FF00" opacity="0.9"/>
      <text x="74" y="430" font-size="18" fill="#C9FF5F">Wallet refresh • Manual exits • Stop-loss audit</text>
    </g>
  </g>
  <text x="960" y="1000" text-anchor="middle" font-family="Inter, system-ui" font-size="24" fill="#E8FBE2" opacity="0.75">Powered by <tspan fill="#B6FF00">Ogres</tspan></text>
</svg>
