<svg xmlns="http://www.w3.org/2000/svg" width="620" height="180" viewBox="0 0 620 180" fill="none">

  <defs>
    <linearGradient id="slimeGrad" x1="0" y1="0" x2="1" y2="1">
      <stop offset="0" stop-color="#F0FF48"/>
      <stop offset="0.38" stop-color="#B6FF00"/>
      <stop offset="0.72" stop-color="#50E500"/>
      <stop offset="1" stop-color="#137600"/>
    </linearGradient>
    <linearGradient id="darkGrad" x1="0" y1="0" x2="1" y2="1">
      <stop offset="0" stop-color="#0F1C0E"/>
      <stop offset="1" stop-color="#020402"/>
    </linearGradient>
    <radialGradient id="glowGrad" cx="50%" cy="50%" r="60%">
      <stop offset="0" stop-color="#B6FF00" stop-opacity="0.55"/>
      <stop offset="0.52" stop-color="#5EFF00" stop-opacity="0.16"/>
      <stop offset="1" stop-color="#5EFF00" stop-opacity="0"/>
    </radialGradient>
    <filter id="softGlow" x="-60%" y="-60%" width="220%" height="220%">
      <feGaussianBlur stdDeviation="3.5" result="blur"/>
      <feColorMatrix in="blur" type="matrix" values="0 0 0 0 0.7 0 0 0 0 1 0 0 0 0 0 0 0 0 0.9 0" result="greenBlur"/>
      <feMerge><feMergeNode in="greenBlur"/><feMergeNode in="SourceGraphic"/></feMerge>
    </filter>
    <filter id="heavyGlow" x="-80%" y="-80%" width="260%" height="260%">
      <feGaussianBlur stdDeviation="8" result="blur"/>
      <feColorMatrix in="blur" type="matrix" values="0 0 0 0 0.7 0 0 0 0 1 0 0 0 0 0 0 0 0 0.9 0" result="greenBlur"/>
      <feMerge><feMergeNode in="greenBlur"/><feMergeNode in="SourceGraphic"/></feMerge>
    </filter>
    <filter id="innerShadow" x="-30%" y="-30%" width="160%" height="160%">
      <feOffset dx="0" dy="1"/>
      <feGaussianBlur stdDeviation="1.5" result="offset-blur"/>
      <feComposite operator="out" in="SourceGraphic" in2="offset-blur" result="inverse"/>
      <feFlood flood-color="#E6FF40" flood-opacity="0.55" result="color"/>
      <feComposite operator="in" in="color" in2="inverse" result="shadow"/>
      <feComposite operator="over" in="shadow" in2="SourceGraphic"/>
    </filter>
  </defs>

  <rect width="620" height="180" fill="transparent"/>
  <rect x="40" y="38" width="540" height="96" rx="28" fill="#091209" stroke="url(#slimeGrad)" stroke-width="7" filter="url(#softGlow)"/>
  <path d="M70 40C154 31 225 45 309 38C392 31 492 31 554 43" stroke="#F3FF5E" stroke-width="5" stroke-linecap="round" opacity="0.85"/>
  <text x="310" y="103" text-anchor="middle" font-family="Arial Black, Impact, system-ui, sans-serif" font-size="44" letter-spacing="2" fill="url(#slimeGrad)" stroke="#E9FF57" stroke-width="1.2" filter="url(#softGlow)">ENTER THE SWAMP</text>
  <g fill="url(#slimeGrad)" filter="url(#softGlow)">
    <path d="M174 132c13 0 19 8 17 20c-3 24-9 35-19 34c-12-1-6-24-5-36c1-7 2-11 7-18z"/>
    <path d="M390 132c16 0 24 10 21 24c-5 27-11 42-24 40c-13-2-7-29-6-43c1-8 3-13 9-21z"/>
    <path d="M520 130c12 0 18 7 16 18c-4 20-8 29-18 28c-9-2-6-20-5-31c1-6 2-10 7-15z"/>
  </g>
</svg>
